PathFileType	4	(X/Y/Z)	OpenSim_Sub08_EMGBaseline_Magnet.trc
DataRate	CameraRate	NumFrames	NumMarkers	Units	OrigDataRate	OrigDataStartFrame	OrigNumFrames
100	100	27	8	m	100	1	6654
Frame#	Time	torso_imu_offset_imu	pelvis_imu_offset_imu	tibia_r_imu_offset_imu	femur_r_imu_offset_imu	tibia_l_imu_offset_imu	femur_l_imu_offset_imu	toes_r_imu_offset_imu	toes_l_imu_offset_imu
				X1	Y1	Z1	X2	Y2	Z2	X3	Y3	Z3	X4	Y4	Z4	X5	Y5	Z5	X6	Y6	Z6	X7	Y7	Z7	X8		Y8	Z8	

1	0	-0.94046453	-0.18117397	0.03781124	-0.65688483	0.21559208	-0.66684580	-0.65825851	-0.50176254	-0.14313983	-0.76522509	-0.36858576	-0.14593881	-0.68747351	0.38948016	0.27543266	-0.69469346	0.29385928	0.36198072	-0.62347107	-0.30579321	-0.48611273	-0.73965389	-0.11294793	-0.38558345
2	0.01000000	-0.94117744	-0.18392671	0.03506087	-0.65968018	0.21050765	-0.66024832	-0.65562841	-0.50360657	-0.14141626	-0.76445299	-0.36488973	-0.14595797	-0.68328315	0.39175926	0.27211368	-0.70038284	0.29866323	0.36589740	-0.62956284	-0.30470443	-0.49059175	-0.73546726	-0.10950310	-0.38284673
3	0.02000000	-0.94475122	-0.18105533	0.03124642	-0.66113464	0.20491600	-0.66471063	-0.66272171	-0.50230834	-0.13669181	-0.76447778	-0.36383010	-0.15053304	-0.68328653	0.38864819	0.27523455	-0.69895868	0.30047645	0.37009387	-0.62724525	-0.30848248	-0.49641980	-0.73840808	-0.11528921	-0.38573816
4	0.03000000	-0.94342037	-0.18390211	0.03461408	-0.66060871	0.20876270	-0.66859980	-0.66132465	-0.50122003	-0.13634176	-0.76934152	-0.36520478	-0.14615013	-0.68535404	0.38633172	0.27277986	-0.69182780	0.29818380	0.36740523	-0.62484732	-0.30670603	-0.49107900	-0.73563196	-0.11567586	-0.38450561
5	0.04000000	-0.94640052	-0.18497144	0.03519859	-0.66025421	0.21037841	-0.66535309	-0.65796380	-0.50041872	-0.13571700	-0.76730558	-0.37017910	-0.14351087	-0.68356615	0.38648702	0.27555224	-0.69445915	0.30044385	0.37264458	-0.62648792	-0.30634055	-0.48968057	-0.73932944	-0.11514909	-0.38558946
6	0.05000000	-0.94632123	-0.18093494	0.03308419	-0.65876470	0.21102488	-0.66897902	-0.66012844	-0.49896247	-0.13693154	-0.76200277	-0.36826995	-0.14641505	-0.68395550	0.39187712	0.27582096	-0.69449173	0.30360214	0.36705301	-0.62903230	-0.30798146	-0.48788528	-0.74225154	-0.11303413	-0.38452314
7	0.06000000	-0.94160183	-0.18376081	0.03216956	-0.66233919	0.21031715	-0.66849381	-0.66438680	-0.50434406	-0.13973056	-0.76543950	-0.36653068	-0.14480059	-0.68875211	0.38864995	0.26976389	-0.69350525	0.30198430	0.36295201	-0.62263432	-0.30780237	-0.48907976	-0.73887470	-0.11376386	-0.38659726
8	0.07000000	-0.94581247	-0.18579762	0.03440124	-0.65678179	0.21577901	-0.66496123	-0.66319820	-0.50569679	-0.14346331	-0.76629110	-0.36402997	-0.14843156	-0.68839787	0.38249899	0.27243889	-0.69639922	0.30072536	0.36729227	-0.62623717	-0.30643879	-0.49123160	-0.74042146	-0.11378214	-0.38599325
9	0.08000000	-0.94455129	-0.18323766	0.03975434	-0.65449304	0.21411896	-0.67090376	-0.66057776	-0.49991967	-0.14139096	-0.76344919	-0.36383444	-0.14899750	-0.68625912	0.38212928	0.26891895	-0.69790460	0.30013444	0.36721171	-0.62851551	-0.30742603	-0.49412482	-0.73426056	-0.11742983	-0.38680974
10	0.09000000	-0.94204397	-0.18041823	0.03353411	-0.65859455	0.21093425	-0.66938871	-0.65899151	-0.50353439	-0.14085041	-0.76648559	-0.37031279	-0.15119372	-0.68785714	0.38355227	0.26845960	-0.69642695	0.29769116	0.36966163	-0.62719501	-0.30858816	-0.49244398	-0.74230974	-0.11627821	-0.38385096
11	0.10000000	-0.93993335	-0.18153281	0.03395210	-0.65638154	0.20790402	-0.66546320	-0.65687347	-0.50359399	-0.13860302	-0.76745665	-0.37245506	-0.15223260	-0.68900913	0.38742419	0.27125624	-0.69597898	0.29607979	0.36676200	-0.62760513	-0.30575875	-0.48799907	-0.74380966	-0.11329967	-0.38376776
12	0.11000000	-0.94020976	-0.18225322	0.03232680	-0.65670316	0.20946267	-0.66752944	-0.65896636	-0.50321904	-0.14111332	-0.76726998	-0.36757895	-0.14925351	-0.68494505	0.38542409	0.27242720	-0.69747250	0.29771543	0.36573411	-0.62986331	-0.30898898	-0.49328040	-0.73770359	-0.11340047	-0.38907729
13	0.12000000	-0.94318244	-0.17586791	0.03663112	-0.65571384	0.21082803	-0.66806788	-0.65830984	-0.50720211	-0.14392394	-0.76746745	-0.36811248	-0.15309258	-0.68268177	0.38928513	0.27279162	-0.69281010	0.29677434	0.36947614	-0.62351108	-0.30996085	-0.49139078	-0.73949854	-0.11352892	-0.38901449
14	0.13000000	-0.94071785	-0.17653149	0.03679185	-0.65546276	0.21103364	-0.66627105	-0.65852899	-0.50561422	-0.14438758	-0.76673924	-0.36838003	-0.15282730	-0.68686720	0.38764037	0.27553967	-0.69209451	0.29589144	0.36878823	-0.62786981	-0.30962978	-0.48711558	-0.73828593	-0.11464068	-0.38499525
15	0.14000000	-0.94588252	-0.17730944	0.03576411	-0.65998662	0.21432012	-0.66634648	-0.65827180	-0.50258259	-0.14688940	-0.76445492	-0.36793247	-0.14584181	-0.68931869	0.38065863	0.27791381	-0.69567822	0.29748549	0.36874693	-0.63106910	-0.31052909	-0.49050127	-0.73943372	-0.11955480	-0.38470515
16	0.15000000	-0.94580279	-0.18056646	0.03712870	-0.65689156	0.21234306	-0.66764825	-0.65981355	-0.50034698	-0.14388213	-0.76254219	-0.36829901	-0.14858256	-0.68352700	0.38445965	0.27435611	-0.69559639	0.29430839	0.36974070	-0.62896131	-0.31212447	-0.49324731	-0.73630159	-0.11399634	-0.38998368
17	0.16000000	-0.94849975	-0.18276321	0.03604709	-0.65332369	0.20883740	-0.67361051	-0.65930386	-0.50186636	-0.14357070	-0.76522046	-0.36857718	-0.15124031	-0.68178969	0.39004564	0.26858402	-0.69876953	0.29790601	0.37127555	-0.62833544	-0.31103390	-0.49456774	-0.73626941	-0.11426467	-0.38594297
18	0.17000000	-0.94872637	-0.18117633	0.04308674	-0.65246149	0.21012065	-0.67449751	-0.65643268	-0.50000729	-0.15001932	-0.76600518	-0.37139229	-0.14983173	-0.68427830	0.38713952	0.27260268	-0.69930855	0.29729320	0.37124634	-0.62775354	-0.30923631	-0.49134623	-0.73761830	-0.11527905	-0.38413630
19	0.18000000	-0.94292667	-0.18332945	0.04160353	-0.65559304	0.20889733	-0.66942872	-0.65547403	-0.50373245	-0.15034681	-0.76341625	-0.36711283	-0.15457347	-0.68355027	0.38727773	0.27865593	-0.69525300	0.29260961	0.37016244	-0.62986353	-0.30620224	-0.49470538	-0.73887722	-0.11448373	-0.37744889
20	0.19000000	-0.94568344	-0.17776294	0.03807093	-0.65157513	0.21134734	-0.66862361	-0.65536236	-0.50321029	-0.14434579	-0.76593698	-0.36502425	-0.14861732	-0.68240003	0.38263590	0.27777088	-0.69258665	0.29350830	0.36905862	-0.62854688	-0.30832649	-0.49171018	-0.73842158	-0.11983623	-0.38463322
21	0.20000000	-0.94421709	-0.17997496	0.03936299	-0.65316006	0.20913115	-0.66889800	-0.66067163	-0.50234540	-0.13975455	-0.76463165	-0.36950168	-0.15396453	-0.68307179	0.38413323	0.27333858	-0.69257573	0.29252307	0.36731325	-0.62670964	-0.31026209	-0.49459029	-0.74030577	-0.11898392	-0.38860970
22	0.21000000	-0.94379098	-0.17935036	0.03629967	-0.65318176	0.20569524	-0.67389403	-0.65760337	-0.50159306	-0.14645569	-0.76748096	-0.36994748	-0.15573872	-0.68418528	0.39003088	0.27247191	-0.69463334	0.29171890	0.36987954	-0.62839630	-0.30972761	-0.49550563	-0.74252480	-0.11798537	-0.38510375
23	0.22000000	-0.94435238	-0.17724315	0.03689495	-0.64867258	0.20850787	-0.67169995	-0.65130365	-0.50415488	-0.14734025	-0.76712651	-0.36737420	-0.15240424	-0.67802714	0.38678608	0.27655939	-0.69781499	0.29812538	0.37009743	-0.62760561	-0.31336051	-0.49205562	-0.73620998	-0.11176335	-0.38658712
24	0.23000000	-0.94043857	-0.18232970	0.03922592	-0.64752134	0.20999707	-0.66905204	-0.65855436	-0.50614130	-0.14692607	-0.76431794	-0.36956419	-0.15189718	-0.68564876	0.38893455	0.27912308	-0.69225857	0.29821219	0.36618584	-0.62508424	-0.30853084	-0.48629768	-0.74024146	-0.11280629	-0.38066826
25	0.24000000	-0.94571280	-0.17750448	0.03412300	-0.65054241	0.20990639	-0.67597862	-0.66061694	-0.50801543	-0.14671594	-0.76640188	-0.36879321	-0.15496851	-0.68485654	0.38741933	0.27981341	-0.69422382	0.29491498	0.37679606	-0.62331093	-0.30729707	-0.48539660	-0.73969848	-0.11668389	-0.38190901
26	0.25000000	-0.94657942	-0.17580221	0.03737461	-0.65321792	0.20781707	-0.67268201	-0.65685404	-0.50492853	-0.14307308	-0.76259133	-0.37024958	-0.15010218	-0.67860230	0.38198134	0.28122588	-0.69791522	0.29640065	0.37601932	-0.62288313	-0.30951171	-0.48762981	-0.73504662	-0.11446307	-0.38729195
27	0.26000000	-0.94587697	-0.17913712	0.03998173	-0.65139459	0.20689515	-0.67321645	-0.66219472	-0.50076458	-0.14394625	-0.76323319	-0.37052062	-0.15000234	-0.68370435	0.38456157	0.27729701	-0.69291977	0.29656072	0.37402214	-0.62819182	-0.31075412	-0.48451226	-0.73955435	-0.11273750	-0.38820623
